<svg width="53" height="90" viewBox="0 0 53 90" fill="none" xmlns="http://www.w3.org/2000/svg">
<path d="M27.6641 0.000555275C27.1007 -0.00308403 26.5279 0.0111575 25.9453 0.043524C16.2043 0.584722 9.62932 4.75208 5.58984 10.0826C1.55037 15.4131 0 21.8406 0 27.0416C0 31.8749 2.31791 37.91 4.7168 43.0865C5.91624 45.6748 7.14459 48.0367 8.13477 49.8756C9.12494 51.7145 9.90019 53.0783 10.1055 53.4888C10.9862 55.2503 12 59.3749 12 61.0416C12 62.9822 13.0285 64.2401 14 65.0084C13.9998 65.0194 13.9998 65.0305 14 65.0416V69.0416C14 69.1968 14.0361 69.35 14.1055 69.4888L14.8828 71.0416L14.1055 72.5943C14.036 72.7332 13.9999 72.8863 13.9999 73.0416C13.9999 73.1968 14.036 73.35 14.1055 73.4888L14.8828 75.0416L14.1055 76.5943C14.036 76.7332 13.9999 76.8863 13.9999 77.0416C13.9999 77.1968 14.036 77.35 14.1055 77.4888L15 79.2779V81.0416C15 81.2801 15.0852 81.5107 15.2402 81.692L21.2402 88.692C21.3341 88.8016 21.4507 88.8897 21.5818 88.95C21.713 89.0104 21.8556 89.0416 22 89.0416H30C30.1444 89.0416 30.287 89.0104 30.4182 88.95C30.5493 88.8897 30.6659 88.8016 30.7598 88.692L36.7598 81.692C36.9148 81.5107 37 81.2801 37 81.0416V79.2779L37.8945 77.4888C37.964 77.35 38.0001 77.1968 38.0001 77.0416C38.0001 76.8863 37.964 76.7332 37.8945 76.5943L37.1172 75.0416L37.8945 73.4888C37.964 73.35 38.0001 73.1968 38.0001 73.0416C38.0001 72.8863 37.964 72.7332 37.8945 72.5943L37.1172 71.0416L37.8945 69.4888C37.9639 69.35 38 69.1968 38 69.0416V65.0084C38.9715 64.2401 40 62.9822 40 61.0416C40 59.0427 40.9965 55.2849 41.8945 53.4888C42.0655 53.1469 42.9163 51.7693 44 49.9556C45.0837 48.1419 46.437 45.8098 47.7637 43.2388C50.417 38.0969 53 32.0514 53 27.0416C53 21.7749 50.9431 14.8703 46.5352 9.29548C42.4027 4.06912 36.1146 0.0551443 27.6641 0.000555275ZM27.6523 1.9986C35.4927 2.03831 41.1286 5.6859 44.9648 10.5377C49.0569 15.7129 51 22.3082 51 27.0416C51 31.3348 48.583 37.2886 45.9863 42.3209C44.688 44.837 43.3538 47.1351 42.2812 48.9302C41.2087 50.7254 40.4345 51.9362 40.1055 52.5943C39.0035 54.7982 38 58.4605 38 61.0416C38 62.3882 37.2585 63.1709 36.6289 63.6002C36.52 63.6435 36.4195 63.7056 36.332 63.7838C36.0493 63.9399 35.8232 64.0251 35.7734 64.0416H32.9727L31.998 46.9849C31.9877 46.8037 31.9283 46.6287 31.8261 46.4787C31.7239 46.3287 31.5828 46.2093 31.418 46.1334C31.3083 46.0829 31.1903 46.0468 31.0781 46.0006L37.9434 26.3716C38.0117 26.1836 38.022 25.9795 37.9731 25.7855C37.9242 25.5915 37.8182 25.4167 37.6689 25.2836C37.5196 25.1505 37.3338 25.0652 37.1355 25.0388C36.9373 25.0123 36.7356 25.046 36.5566 25.1353C35.8921 23.8417 34.805 22.982 33.5977 23.0611C32.6167 23.1254 31.7809 23.7103 31.0527 24.4732C30.3031 23.5746 29.3807 22.9587 28.377 23.0396C27.496 23.1107 26.7512 23.5927 26.1133 24.2291C25.5571 23.5367 24.8659 23.0017 23.9844 22.9224C22.915 22.8263 21.9028 23.493 21.0273 24.4869C20.4339 23.819 19.8174 23.3044 19.1367 23.1236C18.1395 22.8588 17.1967 23.2102 16.543 23.6841C15.9721 24.098 15.584 24.606 15.2656 25.0552C15.0886 25.0058 14.9014 25.0061 14.7245 25.0561C14.5477 25.1061 14.388 25.2039 14.2631 25.3387C14.1382 25.4735 14.0528 25.6402 14.0164 25.8203C13.98 26.0005 13.9939 26.1872 14.0566 26.3599L20.9297 46.0064C20.8252 46.0464 20.7164 46.0764 20.6133 46.1197C20.4403 46.1923 20.2912 46.3122 20.1831 46.4655C20.075 46.6189 20.0123 46.7995 20.002 46.9869L19.6113 54.1763C19.3876 53.323 19.1789 52.572 19.002 52.0416C17.002 46.0416 11.002 39.0416 10.002 29.0416C9.36895 22.7186 10.5914 14.1234 13.3984 8.17243C11.0314 9.82843 9.11462 12.1641 7.64062 14.6841C5.23263 18.7981 4 23.4236 4 26.5416C4 32.4046 7.7823 40.4557 9.2793 43.4127C9.3203 43.4637 9.35667 43.5187 9.38867 43.5787C9.38867 43.5787 12.0284 48.6574 13.9434 52.3404C15.2954 54.9404 16.002 57.8274 16.002 60.7584V60.7603C16.002 61.1003 16.137 61.4246 16.377 61.6646C16.617 61.9046 16.9432 62.0416 17.2832 62.0416H19.9277C20.1301 62.1079 20.3484 62.1079 20.5508 62.0416H21.4609C21.4011 61.7692 21.3068 61.3747 21.2402 61.0748L21.957 47.856C24.5639 46.93 27.6848 46.9377 30.0449 47.8443L30.9707 64.0416H16.2266C16.0603 63.9867 14 63.2843 14 61.0416C14 58.7082 13.0138 54.8328 11.8945 52.5943C11.5998 52.0049 10.8751 50.7437 9.89648 48.9263C8.91791 47.109 7.70876 44.7834 6.5332 42.2467C4.18209 37.1732 2 31.2082 2 27.0416C2 22.2425 3.46582 16.1976 7.18359 11.2916C10.9014 6.38558 16.8247 2.55242 26.0547 2.03962C26.5971 2.00948 27.1297 1.99595 27.6523 1.9986ZM23.8047 24.9146C24.292 24.9584 24.811 25.3578 25.0312 26.2271C25.0828 26.4293 25.1963 26.6102 25.3558 26.7446C25.5153 26.8791 25.7129 26.9603 25.9208 26.9768C26.1288 26.9934 26.3367 26.9445 26.5155 26.8371C26.6943 26.7296 26.835 26.5689 26.918 26.3775C27.2757 25.5502 27.983 25.0765 28.5371 25.0318C29.0912 24.9871 29.6231 25.1684 30.0605 26.3716C30.1259 26.5509 30.2412 26.7077 30.3928 26.8236C30.5444 26.9395 30.726 27.0096 30.9162 27.0256C31.1063 27.0416 31.2971 27.0029 31.4659 26.914C31.6348 26.8251 31.7747 26.6898 31.8691 26.524C32.4142 25.5634 33.2085 25.0913 33.7285 25.0572C34.2485 25.0231 34.6821 25.1826 35.0469 26.3326C35.0895 26.4735 35.1627 26.6034 35.2613 26.7128C35.3599 26.8221 35.4814 26.9084 35.6172 26.9654L29.1641 45.4166C28.4604 45.2702 27.7352 45.1739 27 45.1275V37.0162H28.5C28.6325 37.0181 28.7641 36.9936 28.887 36.9442C29.01 36.8947 29.1219 36.8214 29.2163 36.7283C29.3107 36.6353 29.3856 36.5244 29.4368 36.4022C29.4879 36.2799 29.5142 36.1487 29.5142 36.0162C29.5142 35.8837 29.4879 35.7525 29.4368 35.6302C29.3856 35.5079 29.3107 35.3971 29.2163 35.304C29.1219 35.211 29.01 35.1376 28.887 35.0882C28.7641 35.0388 28.6325 35.0143 28.5 35.0162H25.9844H23.5C23.3675 35.0143 23.2359 35.0388 23.113 35.0882C22.99 35.1376 22.8781 35.211 22.7837 35.304C22.6893 35.3971 22.6144 35.5079 22.5632 35.6302C22.5121 35.7525 22.4858 35.8837 22.4858 36.0162C22.4858 36.1487 22.5121 36.2799 22.5632 36.4022C22.6144 36.5244 22.6893 36.6353 22.7837 36.7283C22.8781 36.8214 22.99 36.8947 23.113 36.9442C23.2359 36.9936 23.3675 37.0181 23.5 37.0162H25V45.147C24.2768 45.2019 23.5564 45.2983 22.8496 45.4439L16.3945 26.9888C16.3972 26.983 16.3998 26.9771 16.4023 26.9713C16.4023 26.9713 17.0208 25.8078 17.7168 25.3033C18.0648 25.051 18.311 24.9738 18.625 25.0572C18.939 25.1406 19.4836 25.4829 20.1523 26.5494C20.246 26.6982 20.3771 26.8197 20.5327 26.9017C20.6882 26.9836 20.8626 27.0231 21.0383 27.0162C21.214 27.0093 21.3848 26.9562 21.5334 26.8622C21.682 26.7682 21.8032 26.6368 21.8848 26.481C22.5927 25.131 23.3174 24.8708 23.8047 24.9146ZM18 66.0416H36V68.8052L35.1055 70.5943C35.036 70.7332 34.9999 70.8863 34.9999 71.0416C34.9999 71.1968 35.036 71.35 35.1055 71.4888L35.8828 73.0416L35.1055 74.5943C35.036 74.7332 34.9999 74.8863 34.9999 75.0416C34.9999 75.1968 35.036 75.35 35.1055 75.4888L35.8828 77.0416L35.1055 78.5943C35.0361 78.7332 35 78.8863 35 79.0416V80.6724L31.8789 84.315C28.6254 85.0795 25.4374 85.2386 22.3164 84.772L19 81.0416V80.5338C22.2517 80.5305 27.096 80.2955 31.1855 79.524C31.4341 79.4798 31.6568 79.3433 31.8089 79.1417C31.9609 78.9402 32.0312 78.6886 32.0055 78.4375C31.9797 78.1863 31.86 77.9542 31.6702 77.7877C31.4805 77.6211 31.2348 77.5325 30.9824 77.5396C30.926 77.5414 30.8698 77.5479 30.8145 77.5592C26.7796 78.3203 21.721 78.5527 18.5977 78.5377L18 77.0416L18.502 76.0377C21.7338 76.0591 26.8937 75.8336 31.1855 75.024C31.4341 74.9798 31.6568 74.8433 31.8089 74.6417C31.9609 74.4402 32.0312 74.1886 32.0055 73.9375C31.9797 73.6863 31.86 73.4542 31.6702 73.2877C31.4805 73.1211 31.2348 73.0325 30.9824 73.0396C30.926 73.0414 30.8698 73.0479 30.8145 73.0592C26.7401 73.8277 21.6121 74.0579 18.498 74.0377L18 73.0416L18.502 72.0377C21.7338 72.0591 26.8937 71.8336 31.1855 71.024C31.4341 70.9798 31.6568 70.8433 31.8089 70.6417C31.9609 70.4402 32.0312 70.1886 32.0055 69.9375C31.9797 69.6863 31.86 69.4542 31.6702 69.2877C31.4805 69.1211 31.2348 69.0325 30.9824 69.0396C30.926 69.0414 30.8698 69.0479 30.8145 69.0592C26.7401 69.8277 21.6121 70.0579 18.498 70.0377L18 69.0416V66.0416Z" fill="white"/>
</svg>
